<?xml version="1.0" encoding="utf-8"?>
<!-- Generator: Adobe Illustrator 16.0.0, SVG Export Plug-In . SVG Version: 6.00 Build 0)  -->
<!DOCTYPE svg PUBLIC "-//W3C//DTD SVG 1.1//EN" "http://www.w3.org/Graphics/SVG/1.1/DTD/svg11.dtd">
<svg version="1.1" id="Layer_1" xmlns="http://www.w3.org/2000/svg" xmlns:xlink="http://www.w3.org/1999/xlink" x="0px" y="0px"
	 width="100px" height="100px" viewBox="0 0 100 100" enable-background="new 0 0 100 100" style="fill: #BDD84D;" xml:space="preserve">
<g>
	<g id="_x35__16_">
		<g>
			<path d="M31.063,58.551h4.075c2.251,0,4.075-1.825,4.075-4.075V50.4c0-2.251-1.824-4.074-4.075-4.074h-4.075
				c-2.251,0-4.075,1.823-4.075,4.074v4.075C26.987,56.726,28.812,58.551,31.063,58.551z M31.063,50.4h4.075v4.075h-4.075V50.4z
				 M63.662,74.851h4.075c2.251,0,4.075-1.823,4.075-4.075v-4.074c0-2.252-1.823-4.075-4.075-4.075h-4.075
				c-2.249,0-4.074,1.823-4.074,4.075v4.074C59.588,73.027,61.411,74.851,63.662,74.851z M63.662,66.701h4.075v4.074h-4.075V66.701z
				 M63.662,58.551h4.075c2.251,0,4.075-1.825,4.075-4.075V50.4c0-2.251-1.823-4.074-4.075-4.074h-4.075
				c-2.249,0-4.074,1.823-4.074,4.074v4.075C59.588,56.726,61.411,58.551,63.662,58.551z M63.662,50.4h4.075v4.075h-4.075V50.4z
				 M71.813,21.876h-8.15v-2.038c0-1.125-0.913-2.038-2.037-2.038s-2.037,0.913-2.037,2.038v2.038H39.213v-2.038
				c0-1.125-0.913-2.038-2.038-2.038c-1.125,0-2.037,0.913-2.037,2.038v2.038h-8.15c-4.5,0-8.15,3.649-8.15,8.149v44.825
				c0,4.5,3.649,8.15,8.15,8.15h44.825c4.5,0,8.15-3.65,8.15-8.15V30.025C79.963,25.525,76.313,21.876,71.813,21.876z
				 M75.888,74.851c0,2.252-1.824,4.075-4.075,4.075H26.987c-2.251,0-4.075-1.825-4.075-4.075V38.176h52.976V74.851L75.888,74.851z
				 M75.888,34.101H22.912v-4.075c0-2.251,1.824-4.074,4.075-4.074h8.15v2.037c0,1.124,0.913,2.037,2.037,2.037
				c1.125,0,2.038-0.913,2.038-2.037v-2.037h20.375v2.037c0,1.124,0.913,2.037,2.037,2.037s2.037-0.913,2.037-2.037v-2.037h8.15
				c2.251,0,4.075,1.823,4.075,4.074V34.101z M47.362,74.851h4.075c2.251,0,4.075-1.823,4.075-4.075v-4.074
				c0-2.252-1.824-4.075-4.075-4.075h-4.075c-2.25,0-4.075,1.823-4.075,4.075v4.074C43.287,73.027,45.111,74.851,47.362,74.851z
				 M47.362,66.701h4.075v4.074h-4.075V66.701z M47.362,58.551h4.075c2.251,0,4.075-1.825,4.075-4.075V50.4
				c0-2.251-1.824-4.074-4.075-4.074h-4.075c-2.25,0-4.075,1.823-4.075,4.074v4.075C43.287,56.726,45.111,58.551,47.362,58.551z
				 M47.362,50.4h4.075v4.075h-4.075V50.4z M31.063,74.851h4.075c2.251,0,4.075-1.823,4.075-4.075v-4.074
				c0-2.252-1.824-4.075-4.075-4.075h-4.075c-2.251,0-4.075,1.823-4.075,4.075v4.074C26.987,73.027,28.812,74.851,31.063,74.851z
				 M31.063,66.701h4.075v4.074h-4.075V66.701z"/>
		</g>
	</g>
</g>
</svg>
