<?xml version="1.0" encoding="utf-8"?>
<!-- Generator: Adobe Illustrator 15.0.0, SVG Export Plug-In . SVG Version: 6.00 Build 0)  -->
<!DOCTYPE svg PUBLIC "-//W3C//DTD SVG 1.1//EN" "http://www.w3.org/Graphics/SVG/1.1/DTD/svg11.dtd">
<svg version="1.1" id="Layer_1" xmlns="http://www.w3.org/2000/svg" xmlns:xlink="http://www.w3.org/1999/xlink" x="0px" y="0px"
	 width="100px" height="100px" viewBox="0 0 100 100" enable-background="new 0 0 100 100" xml:space="preserve">
<g>
	<g id="_x31__30_">
		<g>
			<path d="M62.01,35.777c-0.982-0.568-2.241-0.23-2.811,0.753l-13.16,22.795l-7.363-6.791c-0.776-0.829-2.078-0.873-2.906-0.095
				c-0.831,0.777-0.873,2.078-0.096,2.91l9.408,8.678c0.779,0.829,2.078,0.873,2.909,0.095c0.25-0.234,14.774-25.532,14.774-25.532
				C63.332,37.604,62.994,36.345,62.01,35.777z M49.607,17.116c-18.186,0-32.926,14.74-32.926,32.927
				c0,18.186,14.74,32.926,32.926,32.926s32.927-14.74,32.927-32.926C82.534,31.856,67.793,17.116,49.607,17.116z M49.607,78.852
				c-15.911,0-28.81-12.897-28.81-28.809c0-15.913,12.898-28.811,28.81-28.811c15.912,0,28.811,12.898,28.811,28.811
				C78.418,65.954,65.52,78.852,49.607,78.852z"/>
		</g>
	</g>
</g>
</svg>
