<?xml version="1.0" encoding="utf-8"?>
<!-- Generator: Adobe Illustrator 15.0.0, SVG Export Plug-In . SVG Version: 6.00 Build 0)  -->
<!DOCTYPE svg PUBLIC "-//W3C//DTD SVG 1.1//EN" "http://www.w3.org/Graphics/SVG/1.1/DTD/svg11.dtd">
<svg version="1.1" id="Layer_1" xmlns="http://www.w3.org/2000/svg" xmlns:xlink="http://www.w3.org/1999/xlink" x="0px" y="0px"
	 width="100px" height="100px" viewBox="0 0 100 100" enable-background="new 0 0 100 100" xml:space="preserve">
<g id="_x31__1_">
	<g>
		<path d="M61.856,37.762c-13.47,0-24.388,10.918-24.388,24.388s10.918,24.388,24.388,24.388c13.468,0,24.387-10.918,24.387-24.388
			S75.324,37.762,61.856,37.762z M61.856,83.487c-11.785,0-21.339-9.553-21.339-21.338s9.554-21.338,21.339-21.338
			c11.784,0,21.338,9.553,21.338,21.338S73.641,83.487,61.856,83.487z"/>
	</g>
</g>
<g>
	<g id="_x31__21_">
		<g>
			<path d="M30.72,42.996c-0.997,0-1.806,0.809-1.806,1.806s0.809,1.805,1.806,1.805h7.273c0.946-1.221,1.892-2.359,2.837-3.61
				H30.72z"/>
			<path d="M30.72,53.827c-0.997,0-1.806,0.81-1.806,1.806c0,0.995,0.809,1.805,1.806,1.805h3.608
				c0.306-1.203,0.689-2.407,1.088-3.61H30.72z"/>
			<path d="M50.575,14.115v0.053c-0.232,0-1.193-0.091-3.61-0.053h-21.66c-3.988,0-7.221,3.232-7.221,7.22v43.323
				c0,3.987,3.232,7.22,7.221,7.22h9.207c-0.333-0.298-0.518-2.435-0.412-3.609h-8.795c-1.995,0-3.61-1.618-3.61-3.61V21.335
				c0-1.994,1.615-3.609,3.61-3.609h21.61c-0.032,4.322,0.05,7.22,0.05,7.22c0,3.987,3.232,7.221,7.221,7.221c0,0,3.017,0,7.221,0
				v2.897c1.158,0,2.371,0,3.61,0v-6.508L50.575,14.115z M54.186,28.556c-1.995,0-3.61-1.617-3.61-3.61c0,0,0-2.923,0-7.22
				l10.831,10.83H54.186z"/>
		</g>
	</g>
</g>
<path d="M71.19,50.607c-0.793-0.459-1.808-0.187-2.267,0.606L58.311,69.598l-5.938-5.477c-0.626-0.669-1.676-0.704-2.344-0.077
	c-0.67,0.627-0.704,1.677-0.077,2.348l7.587,6.998c0.629,0.668,1.677,0.704,2.347,0.076C60.086,73.276,71.8,52.875,71.8,52.875
	C72.257,52.08,71.983,51.064,71.19,50.607z"/>
</svg>
