<?xml version="1.0" encoding="utf-8"?>
<!-- Generator: Adobe Illustrator 15.0.0, SVG Export Plug-In . SVG Version: 6.00 Build 0)  -->
<!DOCTYPE svg PUBLIC "-//W3C//DTD SVG 1.1//EN" "http://www.w3.org/Graphics/SVG/1.1/DTD/svg11.dtd">
<svg fill="#BDD84D" version="1.1" id="Layer_1" xmlns="http://www.w3.org/2000/svg" xmlns:xlink="http://www.w3.org/1999/xlink" x="0px" y="0px"
	 width="100px" height="100px" viewBox="0 0 100 100" enable-background="new 0 0 100 100" xml:space="preserve">
<g>
	<path d="M84.929,29.662l-15.19-12.636c-0.219-0.162-0.615-0.309-0.924-0.309H31.023c-0.309,0-0.674,0.104-0.924,0.309
		L15.115,29.632c-0.704,0.484-1.071,1.13-1.071,1.923v57.074h71.912V31.481C85.956,30.762,85.501,30.175,84.929,29.662z
		 M69.123,37.219c0,2.906-2.45,5.356-5.357,5.356c-2.905,0-5.356-2.45-5.356-5.356v-4.593h10.714V37.219z M55.357,37.219
		c0,2.906-2.452,5.356-5.357,5.356s-5.357-2.45-5.357-5.356v-4.593h10.715V37.219z M41.591,37.219c0,2.906-2.451,5.356-5.356,5.356
		c-2.907,0-5.357-2.45-5.357-5.356v-4.593h10.714V37.219z M52.45,19.785l2.407,9.789h-9.744l2.304-9.789H52.45z M60.552,19.785
		l7.074,9.789h-9.555l-1.453-5.885l-0.938-3.904H60.552L60.552,19.785z M41.87,29.574h-9.511l7.074-9.789h4.74L41.87,29.574z
		 M80.115,29.574h-8.718l-7.073-9.789h4.05L80.115,29.574z M31.641,19.785h4.051l-7.03,9.789h-8.776L31.641,19.785z M17.111,32.626
		h10.714v4.593c0,2.906-2.452,5.356-5.357,5.356c-2.906,0-5.356-2.45-5.356-5.356V32.626z M17.111,85.563V43.677
		c1.468,1.218,3.331,1.966,5.356,1.966c2.817,0,5.357-1.452,6.883-3.625c1.526,2.188,4.066,3.625,6.884,3.625
		s5.356-1.452,6.882-3.625c1.526,2.188,4.066,3.625,6.884,3.625s5.357-1.452,6.884-3.625c1.525,2.188,4.064,3.625,6.882,3.625
		s5.357-1.452,6.884-3.625c1.525,2.188,4.065,3.625,6.883,3.625c2.024,0,3.889-0.748,5.356-1.966v41.899H17.111V85.563z
		 M82.889,37.205c0,2.906-2.451,5.357-5.356,5.357c-2.906,0-5.357-2.451-5.357-5.357v-4.594h10.714V37.205z"/>
	<g>
		<rect x="15.731" y="64.297" width="68.845" height="3.068"/>
	</g>
</g>
</svg>
