<?xml version="1.0" encoding="utf-8"?>
<!-- Generator: Adobe Illustrator 15.0.0, SVG Export Plug-In . SVG Version: 6.00 Build 0)  -->
<!DOCTYPE svg PUBLIC "-//W3C//DTD SVG 1.1//EN" "http://www.w3.org/Graphics/SVG/1.1/DTD/svg11.dtd">
<svg version="1.1" id="Layer_1" xmlns="http://www.w3.org/2000/svg" xmlns:xlink="http://www.w3.org/1999/xlink" x="0px" y="0px"
	 width="100px" height="100px" viewBox="0 0 100 100" enable-background="new 0 0 100 100" xml:space="preserve">
<g>
	<g id="_x31_0_42_">
		<g>
			<path d="M74.639,39.624c1.796-1.796,1.78-4.104,0-5.885l-8.826-8.825c-1.78-1.781-4.089-1.798-5.885,0L27.25,57.591
				l-4.505,16.273c-0.481,2.259,0.683,3.423,2.942,2.942l16.273-4.505L74.639,39.624z M27.185,72.367l3.321-12.148l8.826,8.827
				L27.185,72.367z M42.274,66.104c-3.02-3.021-7.97-7.969-8.826-8.826l19.124-19.123l8.826,8.825L42.274,66.104z M64.342,44.036
				l-8.827-8.826l5.885-5.884c1.409-1.501,1.547-1.488,2.942,0l5.884,5.885c1.433,1.454,1.525,1.429,0,2.941L64.342,44.036
				L64.342,44.036z"/>
		</g>
	</g>
</g>
</svg>
