<?xml version="1.0" encoding="utf-8"?>
<!-- Generator: Adobe Illustrator 15.0.0, SVG Export Plug-In . SVG Version: 6.00 Build 0)  -->
<!DOCTYPE svg PUBLIC "-//W3C//DTD SVG 1.1//EN" "http://www.w3.org/Graphics/SVG/1.1/DTD/svg11.dtd">
<svg fill="#BDD84D" version="1.1" id="Layer_1" xmlns="http://www.w3.org/2000/svg" xmlns:xlink="http://www.w3.org/1999/xlink" x="0px" y="0px"
	 width="100px" height="100px" viewBox="0 0 100 100" enable-background="new 0 0 100 100" xml:space="preserve">
<g>
	<g id="_x37__2_">
		<g>
			<path d="M77.545,23.389H23.729c-4.953,0-8.969,4.016-8.969,8.969v35.878c0,4.952,4.016,8.968,8.969,8.968h53.816
				c4.951,0,8.967-4.016,8.967-8.968V32.357C86.512,27.404,82.496,23.389,77.545,23.389z M79.785,27.873L50.636,50.296
				L21.487,27.873H79.785z M19.244,68.235V32.357l20.181,15.697L19.457,69.53C19.332,69.117,19.244,68.689,19.244,68.235z
				 M22.731,72.6l20.236-21.561l7.669,5.793L57.975,51l20.566,21.598C78.219,72.672,23.054,72.672,22.731,72.6z M81.814,69.532
				L61.848,48.055l20.18-15.697v35.878C82.027,68.689,81.941,69.117,81.814,69.532z"/>
		</g>
	</g>
</g>
</svg>
