<?xml version="1.0" encoding="utf-8"?>
<!-- Generator: Adobe Illustrator 15.0.0, SVG Export Plug-In . SVG Version: 6.00 Build 0)  -->
<!DOCTYPE svg PUBLIC "-//W3C//DTD SVG 1.1//EN" "http://www.w3.org/Graphics/SVG/1.1/DTD/svg11.dtd">
<svg fill="#BDD84D" version="1.1" id="Layer_1" xmlns="http://www.w3.org/2000/svg" xmlns:xlink="http://www.w3.org/1999/xlink" x="0px" y="0px"
	 width="100px" height="100px" viewBox="0 0 100 100" enable-background="new 0 0 100 100" xml:space="preserve">
<path d="M85.976,44.078L52.242,17.689c-0.576-0.451-1.318-0.7-2.09-0.7s-1.514,0.249-2.09,0.699l-33.733,26.39
	c-1.322,1.034-1.041,2.229-0.923,2.57c0.118,0.342,0.632,1.456,2.311,1.456h6.715v32.505c0,1.684,1.369,3.053,3.052,3.053H41.28
	c1.683,0,3.052-1.369,3.052-3.053V66.062h11.639v14.547c0,1.684,1.368,3.053,3.052,3.053h15.798c1.683,0,3.052-1.369,3.052-3.053
	V48.104h6.715c1.679,0,2.193-1.114,2.312-1.456C87.017,46.307,87.298,45.112,85.976,44.078z M77.263,44.441
	c-1.683,0-3.052,1.369-3.052,3.052v32.505H59.634V65.451c0-1.683-1.369-3.052-3.052-3.052h-12.86c-1.683,0-3.052,1.369-3.052,3.052
	v14.547H26.093V47.493c0-1.683-1.369-3.052-3.052-3.052h-3.233l30.344-23.738l30.343,23.738H77.263z"/>
</svg>
