<?xml version="1.0" encoding="utf-8"?>
<!-- Generator: Adobe Illustrator 15.0.0, SVG Export Plug-In . SVG Version: 6.00 Build 0)  -->
<!DOCTYPE svg PUBLIC "-//W3C//DTD SVG 1.1//EN" "http://www.w3.org/Graphics/SVG/1.1/DTD/svg11.dtd">
<svg version="1.1" id="Layer_1" xmlns="http://www.w3.org/2000/svg" xmlns:xlink="http://www.w3.org/1999/xlink" x="0px" y="0px"
	 width="100px" height="100px" viewBox="0 0 100 100" enable-background="new 0 0 100 100" xml:space="preserve">
<path d="M79.106,38.272H61.305V20.472c0-1.161-0.939-2.102-2.101-2.102H39.302c-1.161,0-2.102,0.941-2.102,2.102v17.801H19.399
	c-1.161,0-2.102,0.941-2.102,2.102v19.903c0,1.161,0.941,2.102,2.102,2.102H37.2v17.799c0,1.162,0.94,2.103,2.102,2.103h19.902
	c1.161,0,2.101-0.94,2.101-2.103V62.379h17.802c1.161,0,2.102-0.94,2.102-2.102V40.374C81.208,39.213,80.268,38.272,79.106,38.272z
	 M77.006,58.176H59.204c-1.16,0-2.102,0.941-2.102,2.102v17.8H41.403v-17.8c0-1.16-0.941-2.102-2.102-2.102H21.501v-15.7h17.801
	c1.16,0,2.102-0.941,2.102-2.102V22.573h15.698v17.801c0,1.16,0.942,2.102,2.103,2.102h17.801L77.006,58.176L77.006,58.176z"/>
</svg>
