<?xml version="1.0" encoding="utf-8"?>
<!-- Generator: Adobe Illustrator 15.0.0, SVG Export Plug-In . SVG Version: 6.00 Build 0)  -->
<!DOCTYPE svg PUBLIC "-//W3C//DTD SVG 1.1//EN" "http://www.w3.org/Graphics/SVG/1.1/DTD/svg11.dtd">
<svg fill="#BDD84D" version="1.1" id="Layer_1" xmlns="http://www.w3.org/2000/svg" xmlns:xlink="http://www.w3.org/1999/xlink" x="0px" y="0px"
	 width="100px" height="100px" viewBox="0 0 100 100" enable-background="new 0 0 100 100" xml:space="preserve">
<g>
	<g id="_x38__39_">
		<g>
			<path d="M81.499,73.347H18.713c-1.155,0-2.093,0.938-2.093,2.093s0.938,2.093,2.093,2.093h62.786
				c1.155,0,2.093-0.938,2.093-2.093S82.654,73.347,81.499,73.347z M52.199,31.49v-4.186h4.186c1.155,0,2.093-0.938,2.093-2.093
				s-0.938-2.093-2.093-2.093H43.827c-1.155,0-2.093,0.938-2.093,2.093s0.938,2.093,2.093,2.093h4.186c0,0-0.015,4.357,0,4.186
				C30.5,32.576,16.62,47.188,16.62,64.976c0,1.698,0,0.938,0,2.093c0,1.154,0.938,2.092,2.093,2.092h62.786
				c1.155,0,2.093-0.938,2.093-2.092c0-1.155,0-0.262,0-2.093C83.592,47.188,69.712,32.576,52.199,31.49z M20.806,64.976
				c0-16.183,13.118-29.301,29.3-29.301s29.3,13.118,29.3,29.301H20.806z"/>
		</g>
	</g>
</g>
</svg>
