<?xml version="1.0" encoding="utf-8"?>
<!-- Generator: Adobe Illustrator 15.0.0, SVG Export Plug-In . SVG Version: 6.00 Build 0)  -->
<!DOCTYPE svg PUBLIC "-//W3C//DTD SVG 1.1//EN" "http://www.w3.org/Graphics/SVG/1.1/DTD/svg11.dtd">
<svg version="1.1" id="Layer_1" xmlns="http://www.w3.org/2000/svg" xmlns:xlink="http://www.w3.org/1999/xlink" x="0px" y="0px"
	 width="100px" height="100px" viewBox="0 0 100 100" enable-background="new 0 0 100 100" xml:space="preserve">
<g>
	<path d="M77.426,27.464c-0.043,0-0.088-0.001-0.131,0.002l-9.029,0.408c-0.52,0.023-1.008,0.252-1.359,0.634l-3.622,3.942
		l-5.337,0.412c-0.496,0.039-0.96,0.264-1.297,0.63l-3.623,3.942l-5.337,0.411c-0.496,0.039-0.959,0.264-1.296,0.63l-2.631,2.862
		c-4.792-3.926-11.435-4.76-17.139-1.989c-7.949,3.863-11.275,13.473-7.412,21.423s13.473,11.275,21.423,7.412
		c5.943-2.887,9.428-8.969,8.996-15.447l30.122-14.635c2.777-1.35,3.939-4.708,2.59-7.485C81.42,28.718,79.535,27.51,77.426,27.464z
		 M78.033,34.562L46.662,49.804c-0.779,0.378-1.219,1.222-1.083,2.077c0.836,5.291-1.841,10.42-6.663,12.764
		c-5.998,2.914-13.249,0.404-16.164-5.594c-2.914-5.998-0.406-13.249,5.593-16.163c4.787-2.326,10.451-1.286,14.094,2.586
		c0.375,0.398,0.898,0.623,1.445,0.62s1.068-0.234,1.437-0.636l3.446-3.749l5.337-0.412c0.496-0.039,0.96-0.264,1.297-0.631
		l3.623-3.941l5.336-0.412c0.497-0.039,0.961-0.264,1.298-0.63l3.598-3.915l8.14-0.368c0.605,0.033,1.142,0.388,1.408,0.935
		C79.203,33.162,78.857,34.16,78.033,34.562z"/>
	<path d="M28.548,50.535c-2.542,1.236-3.606,4.309-2.371,6.852s4.309,3.606,6.852,2.371s3.606-4.309,2.37-6.852
		C34.164,50.364,31.091,49.3,28.548,50.535L28.548,50.535z M31.309,56.217c-0.59,0.287-1.305,0.041-1.592-0.55
		s-0.04-1.306,0.551-1.592c0.59-0.286,1.305-0.04,1.591,0.551C32.147,55.217,31.9,55.931,31.309,56.217z"/>
</g>
</svg>
