<?xml version="1.0" encoding="utf-8"?>
<!-- Generator: Adobe Illustrator 16.0.0, SVG Export Plug-In . SVG Version: 6.00 Build 0)  -->
<!DOCTYPE svg PUBLIC "-//W3C//DTD SVG 1.1//EN" "http://www.w3.org/Graphics/SVG/1.1/DTD/svg11.dtd">
<svg version="1.1" id="Layer_1" xmlns="http://www.w3.org/2000/svg" xmlns:xlink="http://www.w3.org/1999/xlink" x="0px" y="0px"
	 width="100px" height="100px" viewBox="0 0 100 100" enable-background="new 0 0 100 100"  xml:space="preserve">
<g>
	<g>
		<path d="M88.567,85.296l-15.53-43.958c-0.157-0.659-0.815-1.145-1.476-1.145h-7.153c2.024-4.879,3.075-8.613,3.075-11.107
			c0-10.135-7.844-18.465-17.649-18.465c-9.648,0-17.649,8.174-17.649,18.465c0,2.761,1.286,6.762,3.122,11.107h-6.228
			c-0.659,0-1.302,0.486-1.475,1.145L12.073,85.296c-0.502,1.615,0.988,2.118,1.474,2.118h73.545
			C87.752,87.492,89.054,86.755,88.567,85.296L88.567,85.296z M49.834,13.868c8.001,0,14.387,6.855,14.387,15.202
			c0,8.864-12.426,28.599-14.387,31.863c-4.91-8.331-14.386-25.336-14.386-31.863C35.448,20.74,41.817,13.868,49.834,13.868
			L49.834,13.868z M15.838,84.15l14.387-40.695h6.542c4.691,10.056,13.068,23.689,13.068,23.689s12.77-22.857,13.146-23.689h7.437
			L84.804,84.15H15.838L15.838,84.15z"/>
		<rect x="39.7" y="70.094" width="21.415" height="3.263"/>
		<path d="M57.349,27.595c0-4.079-3.436-7.515-7.515-7.515c-4.079,0-7.514,3.436-7.514,7.515c0,4.079,3.263,7.514,7.514,7.514
			C54.086,35.109,57.349,31.69,57.349,27.595L57.349,27.595z M45.583,27.438c0-2.291,1.804-4.252,4.251-4.252
			s4.252,1.961,4.252,4.252s-1.805,4.251-4.252,4.251C47.544,31.69,45.583,29.729,45.583,27.438z"/>
	</g>
</g>
</svg>
