<?xml version="1.0" encoding="utf-8"?>
<!-- Generator: Adobe Illustrator 15.0.0, SVG Export Plug-In . SVG Version: 6.00 Build 0)  -->
<!DOCTYPE svg PUBLIC "-//W3C//DTD SVG 1.1//EN" "http://www.w3.org/Graphics/SVG/1.1/DTD/svg11.dtd">
<svg fill="#BDD84D" version="1.1" id="Layer_1" xmlns="http://www.w3.org/2000/svg" xmlns:xlink="http://www.w3.org/1999/xlink" x="0px" y="0px"
	 width="100px" height="100px" viewBox="0 0 100 100" enable-background="new 0 0 100 100" xml:space="preserve">
<g>
	<g id="_x39__40_">
		<g>
			<path d="M50.146,59.366c-1.25,0-2.265,1.015-2.265,2.265v9.058c0,1.251,1.015,2.266,2.265,2.266c1.25,0,2.264-1.015,2.264-2.266
				v-9.058C52.41,60.381,51.396,59.366,50.146,59.366z M68.262,50.349V32.19c0-10.004-8.111-18.116-18.116-18.116
				c-10.005,0-18.117,8.112-18.117,18.116v18.158c-2.831,3.781-4.529,8.46-4.529,13.547c0,12.507,10.138,22.646,22.646,22.646
				c12.506,0,22.645-10.139,22.645-22.646C72.791,58.809,71.093,54.13,68.262,50.349z M36.558,32.19
				c0-7.505,6.083-13.587,13.588-13.587c7.504,0,13.587,6.082,13.587,13.587V45.81c-3.789-2.851-8.483-4.561-13.587-4.561
				c-5.104,0-9.799,1.71-13.588,4.561V32.19z M50.146,82.012c-10.005,0-18.117-8.112-18.117-18.116
				c0-10.005,8.111-18.116,18.117-18.116c9.666,0,18.116,8.451,18.116,18.116C68.262,73.899,60.15,82.012,50.146,82.012z"/>
		</g>
	</g>
</g>
</svg>
