<?xml version="1.0" encoding="utf-8"?>
<!-- Generator: Adobe Illustrator 15.0.0, SVG Export Plug-In . SVG Version: 6.00 Build 0)  -->
<!DOCTYPE svg PUBLIC "-//W3C//DTD SVG 1.1//EN" "http://www.w3.org/Graphics/SVG/1.1/DTD/svg11.dtd">
<svg fill="#FFFFFF" version="1.1" id="Layer_1" xmlns="http://www.w3.org/2000/svg" xmlns:xlink="http://www.w3.org/1999/xlink" x="0px" y="0px"
	 width="100px" height="100px" viewBox="0 0 100 100" enable-background="new 0 0 100 100" xml:space="preserve">
<g>
	<g id="_x34__1_">
		<g>
			<path d="M14.118,63.423l0.011,7.759l0,0c0.006,2.141,1.744,3.879,3.884,3.884l13.576-1.922c2.202-0.419,3.876-1.729,3.874-3.874
				l-0.008-4.745c4.125-0.6,8.817-1.06,13.575-1.053c5.38,0.007,10.819,0.562,15.519,1.249l0.005,4.59l0,0
				c0.003,2.145,1.682,3.457,3.886,3.885l13.579,1.958c2.2,0.406,3.878-1.731,3.874-3.874l-0.012-7.758
				c-0.005-4.282-3.481-6.389-7.769-7.769c0,0-13.376-3.772-28.039-3.793c-13.791-0.021-28.209,3.717-28.209,3.717
				C17.699,57.614,14.115,59.137,14.118,63.423z M21.872,59.553c6.653-2.064,18.458-3.681,27.149-3.842
				c10.236-0.402,29.102,3.92,29.102,3.92c1.361,0.428,3.882,2.874,3.884,4.238l0.007,4.936c-0.345,1.363-1.104,2.583-2.465,2.465
				l-8.642-1.246c-1.403-0.272-2.472-1.107-2.472-2.472l-0.011-6.083c-1.223-0.212-20.164-4.156-36.852-0.198l0.01,6.232
				c0.003,1.361-1.063,2.197-2.466,2.465L20.48,71.19c-1.593,0.228-2.471-1.109-2.472-2.474L18,63.781
				C17.94,61.901,20.339,60.06,21.872,59.553z"/>
		</g>
	</g>
</g>
<polygon points="65.284,24.669 65.284,24.67 55.081,24.669 55.081,29.42 61.188,29.42 49.696,40.911 36.697,27.912 33.339,31.271 
	49.69,47.623 49.696,47.617 49.703,47.623 65.284,32.041 65.284,39.622 70.034,39.622 70.034,29.419 70.034,24.67 70.034,24.669 "/>
</svg>
