<?xml version="1.0" encoding="utf-8"?>
<!-- Generator: Adobe Illustrator 15.0.0, SVG Export Plug-In . SVG Version: 6.00 Build 0)  -->
<!DOCTYPE svg PUBLIC "-//W3C//DTD SVG 1.1//EN" "http://www.w3.org/Graphics/SVG/1.1/DTD/svg11.dtd">
<svg fill="#BDD84D" version="1.1" id="Layer_1" xmlns="http://www.w3.org/2000/svg" xmlns:xlink="http://www.w3.org/1999/xlink" x="0px" y="0px"
	 width="100px" height="100px" viewBox="0 0 100 100" enable-background="new 0 0 100 100" xml:space="preserve">
<g>
	<g id="_x39__14_">
		<g>
			<path d="M66.582,14.042H32.726c-4.985,0-9.028,4.042-9.028,9.028v54.168c0,4.986,4.042,9.028,9.028,9.028h33.856
				c4.986,0,9.027-4.042,9.027-9.028V23.07C75.609,18.084,71.568,14.042,66.582,14.042z M71.096,77.238
				c0,2.495-2.02,4.515-4.514,4.515H32.726c-2.494,0-4.514-2.02-4.514-4.515v-6.771h42.883V77.238z M71.096,65.954H28.212V29.841
				h42.883V65.954z M71.096,25.327H28.212V23.07c0-2.494,2.02-4.515,4.514-4.515h33.856c2.494,0,4.514,2.022,4.514,4.515V25.327z
				 M49.654,79.496c1.869,0,3.385-1.518,3.385-3.387c0-1.868-1.516-3.385-3.385-3.385s-3.386,1.517-3.386,3.385
				C46.269,77.979,47.785,79.496,49.654,79.496z"/>
		</g>
	</g>
</g>
</svg>
