<?xml version="1.0" encoding="utf-8"?>
<!-- Generator: Adobe Illustrator 15.0.0, SVG Export Plug-In . SVG Version: 6.00 Build 0)  -->
<!DOCTYPE svg PUBLIC "-//W3C//DTD SVG 1.1//EN" "http://www.w3.org/Graphics/SVG/1.1/DTD/svg11.dtd">
<svg version="1.1" id="Layer_1" xmlns="http://www.w3.org/2000/svg" xmlns:xlink="http://www.w3.org/1999/xlink" x="0px" y="0px"
	 width="100px" height="100px" viewBox="0 0 100 100" enable-background="new 0 0 100 100" xml:space="preserve">
<g>
	<path d="M76.042,31.545H63.15v-2.307c0-2.72-2.213-4.934-4.934-4.934H42.261c-2.72,0-4.934,2.213-4.934,4.934v2.307H24.435
		c-2.632,0-4.773,2.141-4.773,4.773v33.572c0,2.631,2.142,4.773,4.773,4.773h51.607c2.632,0,4.773-2.143,4.773-4.773V36.318
		C80.815,33.687,78.676,31.545,76.042,31.545z M41.496,29.238c0-0.421,0.343-0.765,0.765-0.765h15.956
		c0.422,0,0.764,0.343,0.764,0.765v2.307H41.496V29.238z M24.436,35.714h51.606c0.333,0,0.604,0.271,0.604,0.604v10.938
		c-6.459,2.396-16.203,3.812-26.425,3.812c-10.2,0-19.931-1.41-26.391-3.798V36.318C23.831,35.985,24.102,35.714,24.436,35.714z
		 M76.042,70.495H24.436c-0.333,0-0.605-0.271-0.605-0.604V51.687c5.913,1.95,13.687,3.169,22.159,3.475
		c-0.001,0.024-0.003,0.048-0.003,0.072v0.919c0,1.724,1.402,3.127,3.125,3.127h2.256c1.723,0,3.125-1.403,3.125-3.127v-0.919
		c0-0.024-0.003-0.049-0.003-0.072c8.477-0.309,16.249-1.531,22.157-3.485v18.215C76.646,70.224,76.375,70.495,76.042,70.495z"/>
</g>
</svg>
