<?xml version="1.0" encoding="utf-8"?>
<!-- Generator: Adobe Illustrator 15.0.0, SVG Export Plug-In . SVG Version: 6.00 Build 0)  -->
<!DOCTYPE svg PUBLIC "-//W3C//DTD SVG 1.1//EN" "http://www.w3.org/Graphics/SVG/1.1/DTD/svg11.dtd">
<svg fill="#BDD84D" version="1.1" id="Layer_1" xmlns="http://www.w3.org/2000/svg" xmlns:xlink="http://www.w3.org/1999/xlink" x="0px" y="0px"
	 width="100px" height="100px" viewBox="0 0 100 100" enable-background="new 0 0 100 100" xml:space="preserve">
<g>
	<g>
		<path d="M82.289,55.332c-2.146-0.91-6.292-1.762-9.949-2.514c-2.104-0.432-4.713-0.967-5.257-1.224
			c-2.199-1.566-4.424-2.983-6.609-4.212c-2.192-1.232-4.613-2.431-7.455-2.854c-1.97-0.293-3.983-0.491-5.986-0.586
			c-5.993-0.285-10.968-0.05-15.656,0.738c-0.501,0.084-1.003,0.178-1.488,0.27c-0.444,0.083-0.903,0.169-1.35,0.245
			c-0.155,0.027-0.302,0.083-0.433,0.166l-9.077,5.718c-4.438,0.668-5.379,8.336-5.479,9.284c-0.244,1.999-0.361,4.116,1.045,6.081
			c0.98,1.369,2.354,1.996,4.194,1.919l2.29,0.001c0.652,3.306,3.572,5.807,7.066,5.807c3.491,0,6.41-2.498,7.065-5.801
			l29.938,0.014c0.66,3.297,3.576,5.787,7.063,5.787c1.403,0,2.764-0.404,3.934-1.168c1.642-1.072,2.752-2.736,3.128-4.612
			l5.804,0.002c1.123,0,1.373-1.225,1.493-1.813C87.06,64.164,87.248,57.439,82.289,55.332z M52.669,46.872
			c2.464,0.368,4.649,1.455,6.644,2.577c1.502,0.845,3.022,1.782,4.542,2.799H44.666v-6.02c0.735,0.019,1.485,0.046,2.253,0.083
			C48.843,46.401,50.778,46.591,52.669,46.872z M29.17,47.49c0.39-0.068,0.777-0.141,1.154-0.212
			c0.476-0.089,0.966-0.181,1.445-0.262c3.265-0.549,6.686-0.816,10.527-0.819v6.05h-20.68L29.17,47.49z M28.145,71.8
			c-2.665,0-4.835-2.169-4.835-4.835c0-2.664,2.17-4.833,4.835-4.833s4.834,2.169,4.834,4.833C32.979,69.631,30.81,71.8,28.145,71.8
			z M74.849,71.018c-0.784,0.512-1.696,0.782-2.639,0.782c-2.665,0-4.834-2.169-4.834-4.835c0-2.664,2.169-4.833,4.834-4.833
			c2.666,0,4.834,2.169,4.834,4.833C77.044,68.605,76.224,70.119,74.849,71.018z M84.268,66.021L79.35,66.02
			c-0.465-3.526-3.488-6.258-7.14-6.258c-3.648,0-6.67,2.729-7.138,6.252L35.281,66c-0.474-3.518-3.492-6.238-7.137-6.238
			c-3.643,0-6.659,2.719-7.136,6.231l-2.246-0.001c-0.013,0.001-0.037,0-0.057,0.001c-1.058,0.05-1.671-0.212-2.186-0.93
			c-0.918-1.28-0.829-2.7-0.618-4.425c0.001-0.006,0.002-0.014,0.003-0.02c0.167-1.596,0.804-4.4,1.91-6.003h51.538
			c0.701,0.151,1.53,0.322,2.51,0.524c3.373,0.692,7.571,1.554,9.501,2.373c1.105,0.47,1.93,1.372,2.449,2.684
			C84.646,62.305,84.484,64.867,84.268,66.021z"/>
		<path d="M86.159,39.221L50.8,26.086c-0.266-0.099-0.559-0.099-0.824,0L14.616,39.221c-0.613,0.229-0.925,0.91-0.697,1.523
			c0.227,0.613,0.91,0.926,1.523,0.699L50.388,28.46l34.947,12.983c0.136,0.05,0.275,0.074,0.411,0.074
			c0.481,0,0.935-0.295,1.111-0.772C87.085,40.131,86.772,39.449,86.159,39.221z"/>
	</g>
</g>
</svg>
