<?xml version="1.0" encoding="utf-8"?>
<!-- Generator: Adobe Illustrator 15.0.0, SVG Export Plug-In . SVG Version: 6.00 Build 0)  -->
<!DOCTYPE svg PUBLIC "-//W3C//DTD SVG 1.1//EN" "http://www.w3.org/Graphics/SVG/1.1/DTD/svg11.dtd">
<svg version="1.1" id="Layer_1" xmlns="http://www.w3.org/2000/svg" xmlns:xlink="http://www.w3.org/1999/xlink" x="0px" y="0px"
	 width="100px" height="100px" viewBox="0 0 100 100" enable-background="new 0 0 100 100" xml:space="preserve">
<g>
	<g id="_x34__27_">
		<g>
			<path d="M75.204,80.048l6.088-6.104l0,0c1.678-1.687,1.678-4.419,0-6.104l-12.178-9.157c-2.06-1.4-4.404-1.687-6.087,0
				l-3.724,3.735c-3.712-2.771-7.761-6.096-11.494-9.84c-4.222-4.232-8.06-8.942-11.212-13.176l3.603-3.61l0,0
				c1.683-1.687,1.396-4.037,0-6.105l-9.132-12.209c-1.409-2.047-4.407-1.686-6.088,0l-6.087,6.105
				c-3.361,3.369-2.284,7.756,0,12.209c0,0,7.546,13.475,19.052,25.012C48.766,71.655,63.03,80.048,63.03,80.048
				C67.826,81.798,71.839,83.418,75.204,80.048z M66.07,76.996c-6.85-3.606-17.396-11.611-24.352-18.314
				c-8.359-7.728-19.786-25.946-19.786-25.946c-0.734-1.405-0.792-5.309,0.278-6.382l3.873-3.884c1.342-0.801,2.896-1.162,3.874,0
				l5.811,7.77c0.889,1.315,1.071,2.813,0,3.884l-4.772,4.788c0.795,1.128,12.579,19.109,28.802,29.112l4.889-4.904
				c1.068-1.073,2.563-0.892,3.874,0l7.747,5.826c1.431,1.073,1.07,2.813,0,3.886l-3.872,3.885
				C71.005,78.24,67.674,77.802,66.07,76.996z"/>
		</g>
	</g>
</g>
</svg>
