<?xml version="1.0" encoding="utf-8"?>
<!-- Generator: Adobe Illustrator 15.0.0, SVG Export Plug-In . SVG Version: 6.00 Build 0)  -->
<!DOCTYPE svg PUBLIC "-//W3C//DTD SVG 1.1//EN" "http://www.w3.org/Graphics/SVG/1.1/DTD/svg11.dtd">
<svg fill="#BDD84D" version="1.1" id="Layer_1" xmlns="http://www.w3.org/2000/svg" xmlns:xlink="http://www.w3.org/1999/xlink" x="0px" y="0px"
	 width="100px" height="100px" viewBox="0 0 100 100" enable-background="new 0 0 100 100" xml:space="preserve">
<g>
	<path d="M89.367,81.499H10.633c-5.151,0-9.342-4.19-9.342-9.342V43.575c0-5.151,4.19-9.342,9.342-9.342h78.734
		c5.15,0,9.342,4.19,9.342,9.342v28.582C98.709,77.309,94.518,81.499,89.367,81.499z M10.633,38.233
		c-2.945,0-5.342,2.396-5.342,5.342v28.582c0,2.945,2.396,5.342,5.342,5.342h78.734c2.945,0,5.342-2.396,5.342-5.342V43.575
		c0-2.945-2.396-5.342-5.342-5.342H10.633z"/>
	<g>
		<path fill="#BDD84D" d="M11.463,52.559h6.618c1.441,0,2.521,0.343,3.238,1.028s1.077,1.661,1.077,2.927
			c0,1.301-0.392,2.317-1.173,3.05c-0.783,0.732-1.977,1.099-3.582,1.099h-2.18v4.781h-3.999V52.559z M15.462,58.052h0.976
			c0.768,0,1.307-0.133,1.617-0.4c0.311-0.266,0.466-0.607,0.466-1.023c0-0.404-0.135-0.747-0.404-1.028s-0.776-0.422-1.521-0.422
			h-1.134V58.052z"/>
		<path fill="#BDD84D" d="M24.638,52.559h3.99v12.885h-3.99V52.559z"/>
		<path fill="#BDD84D" d="M40.063,60.17l3.489,1.055c-0.234,0.979-0.604,1.796-1.107,2.452s-1.129,1.151-1.877,1.485
			c-0.746,0.334-1.697,0.501-2.852,0.501c-1.4,0-2.545-0.203-3.432-0.61c-0.889-0.407-1.654-1.123-2.299-2.147
			s-0.967-2.336-0.967-3.936c0-2.131,0.566-3.769,1.701-4.914c1.133-1.145,2.737-1.717,4.812-1.717c1.623,0,2.898,0.328,3.827,0.984
			s1.619,1.664,2.07,3.023l-3.516,0.782c-0.123-0.393-0.252-0.68-0.387-0.861c-0.223-0.305-0.495-0.539-0.817-0.703
			s-0.683-0.246-1.081-0.246c-0.902,0-1.594,0.363-2.074,1.089c-0.363,0.538-0.545,1.384-0.545,2.537
			c0,1.428,0.217,2.406,0.65,2.936c0.434,0.53,1.043,0.795,1.828,0.795c0.762,0,1.337-0.214,1.727-0.642S39.887,60.984,40.063,60.17
			z"/>
		<path fill="#BDD84D" d="M45.503,52.559h3.981v4.869l4.171-4.869h5.295l-4.703,4.863l4.914,8.021h-4.904l-2.717-5.299l-2.056,2.154
			v3.145h-3.981V52.559z"/>
		<path fill="#BDD84D" d="M68.865,52.559h3.973v7.677c0,0.761-0.119,1.479-0.355,2.156c-0.238,0.676-0.611,1.268-1.117,1.774
			c-0.508,0.506-1.039,0.861-1.596,1.066c-0.773,0.287-1.701,0.431-2.785,0.431c-0.627,0-1.313-0.044-2.053-0.132
			c-0.742-0.088-1.361-0.262-1.859-0.522s-0.953-0.631-1.365-1.111c-0.414-0.479-0.697-0.975-0.85-1.484
			c-0.246-0.819-0.369-1.546-0.369-2.178v-7.677h3.973v7.859c0,0.702,0.195,1.251,0.586,1.646c0.389,0.396,0.93,0.593,1.621,0.593
			c0.686,0,1.223-0.194,1.613-0.584c0.389-0.39,0.584-0.941,0.584-1.655V52.559z"/>
		<path fill="#BDD84D" d="M75.457,52.559h6.617c1.441,0,2.521,0.343,3.24,1.028c0.717,0.686,1.076,1.661,1.076,2.927
			c0,1.301-0.391,2.317-1.174,3.05c-0.781,0.732-1.977,1.099-3.582,1.099h-2.18v4.781h-3.998V52.559z M79.455,58.052h0.977
			c0.768,0,1.307-0.133,1.617-0.4c0.311-0.266,0.465-0.607,0.465-1.023c0-0.404-0.135-0.747-0.404-1.028s-0.775-0.422-1.52-0.422
			h-1.135V58.052z"/>
	</g>
	<path d="M76.031,26.06L56.063,12.077c0.033-0.258,0.057-0.52,0.057-0.787c0-3.379-2.74-6.118-6.119-6.118
		c-3.38,0-6.119,2.739-6.119,6.118c0,0.268,0.023,0.528,0.057,0.787L23.967,26.06c-0.904,0.634-1.124,1.881-0.491,2.786
		c0.39,0.556,1.01,0.853,1.641,0.853c0.396,0,0.796-0.117,1.146-0.361l19.491-13.647c1.101,1.063,2.596,1.72,4.247,1.72
		c1.65,0,3.146-0.656,4.246-1.719l19.49,13.646c0.35,0.244,0.75,0.361,1.146,0.361c0.631,0,1.25-0.297,1.641-0.853
		C77.156,27.94,76.936,26.693,76.031,26.06z"/>
</g>
</svg>
