<?xml version="1.0" encoding="utf-8"?>
<!-- Generator: Adobe Illustrator 15.0.0, SVG Export Plug-In . SVG Version: 6.00 Build 0)  -->
<!DOCTYPE svg PUBLIC "-//W3C//DTD SVG 1.1//EN" "http://www.w3.org/Graphics/SVG/1.1/DTD/svg11.dtd">
<svg fill="#BDD84D" version="1.1" id="Layer_1" xmlns="http://www.w3.org/2000/svg" xmlns:xlink="http://www.w3.org/1999/xlink" x="0px" y="0px"
	 width="100px" height="100px" viewBox="0 0 100 100" enable-background="new 0 0 100 100" xml:space="preserve">
<path d="M69.346,40.742H12.935c-3.691,0-6.693,3.003-6.693,6.693v20.479c0,3.691,3.002,6.693,6.693,6.693h46.664
	c0,0-0.556-1.199-0.326-2.866H12.935c-2.11,0-3.827-1.717-3.827-3.827V47.436c0-2.11,1.717-3.827,3.827-3.827h56.411
	c2.11,0,3.827,1.717,3.827,3.827v7.263c0.958-0.214,1.938-0.115,2.866-0.146v-7.116C76.039,43.745,73.037,40.742,69.346,40.742z"/>
<g>
	<path fill="#BDD84D" d="M13.052,52.801h4.741c1.032,0,1.806,0.245,2.32,0.736s0.771,1.19,0.771,2.098c0,0.932-0.28,1.66-0.84,2.186
		c-0.561,0.524-1.416,0.787-2.566,0.787h-1.562v3.426h-2.865V52.801z M15.917,56.736h0.699c0.549,0,0.936-0.095,1.158-0.287
		c0.223-0.189,0.334-0.435,0.334-0.733c0-0.289-0.097-0.535-0.29-0.736s-0.557-0.303-1.09-0.303h-0.812V56.736z"/>
	<path fill="#BDD84D" d="M22.49,52.801h2.859v9.232H22.49V52.801z"/>
	<path fill="#BDD84D" d="M33.542,58.254l2.5,0.756c-0.167,0.701-0.432,1.287-0.793,1.757s-0.809,0.825-1.345,1.064
		c-0.534,0.239-1.216,0.359-2.043,0.359c-1.004,0-1.823-0.146-2.459-0.438c-0.637-0.292-1.186-0.806-1.646-1.538
		c-0.462-0.734-0.693-1.675-0.693-2.821c0-1.526,0.406-2.699,1.219-3.521c0.813-0.82,1.962-1.229,3.447-1.229
		c1.163,0,2.077,0.234,2.742,0.705c0.666,0.47,1.16,1.192,1.483,2.166l-2.519,0.561c-0.088-0.281-0.181-0.487-0.277-0.617
		c-0.159-0.218-0.354-0.386-0.585-0.504c-0.231-0.117-0.49-0.176-0.775-0.176c-0.646,0-1.142,0.261-1.486,0.779
		c-0.26,0.386-0.391,0.992-0.391,1.818c0,1.022,0.156,1.725,0.467,2.104c0.311,0.38,0.747,0.569,1.31,0.569
		c0.546,0,0.958-0.153,1.237-0.46C33.213,59.283,33.417,58.838,33.542,58.254z"/>
	<path fill="#BDD84D" d="M37.44,52.801h2.853v3.489l2.988-3.489h3.794l-3.369,3.484l3.521,5.748h-3.513l-1.947-3.797l-1.474,1.543
		v2.254H37.44V52.801z"/>
	<path fill="#BDD84D" d="M54.179,52.801h2.847v5.5c0,0.545-0.086,1.061-0.255,1.545c-0.172,0.484-0.438,0.908-0.801,1.271
		c-0.363,0.362-0.743,0.617-1.143,0.765c-0.555,0.205-1.22,0.309-1.996,0.309c-0.449,0-0.939-0.032-1.471-0.095
		s-0.976-0.188-1.332-0.375c-0.356-0.187-0.684-0.451-0.979-0.796c-0.297-0.344-0.499-0.698-0.608-1.063
		c-0.176-0.587-0.265-1.107-0.265-1.561v-5.5h2.848v5.631c0,0.503,0.139,0.896,0.418,1.18c0.278,0.283,0.667,0.425,1.162,0.425
		c0.49,0,0.876-0.139,1.156-0.418c0.278-0.279,0.418-0.675,0.418-1.187V52.801z"/>
	<path fill="#BDD84D" d="M58.901,52.801h4.742c1.032,0,1.806,0.245,2.32,0.736c0.514,0.491,0.771,1.19,0.771,2.098
		c0,0.932-0.28,1.66-0.841,2.186c-0.56,0.524-1.416,0.787-2.566,0.787h-1.562v3.426h-2.865V52.801z M61.767,56.736h0.699
		c0.55,0,0.936-0.095,1.158-0.287c0.223-0.189,0.334-0.435,0.334-0.733c0-0.289-0.096-0.535-0.289-0.736s-0.557-0.303-1.09-0.303
		h-0.813V56.736z"/>
</g>
<path d="M59.791,34.886L45.483,24.868c0.023-0.185,0.04-0.373,0.04-0.564c0-2.421-1.962-4.384-4.383-4.384
	c-2.422,0-4.384,1.963-4.384,4.384c0,0.191,0.017,0.379,0.04,0.564L22.488,34.886c-0.648,0.454-0.806,1.348-0.352,1.996
	c0.278,0.398,0.724,0.611,1.175,0.611c0.283,0,0.57-0.084,0.82-0.259l13.966-9.778c0.788,0.761,1.86,1.231,3.043,1.231
	s2.254-0.47,3.042-1.23l13.965,9.777c0.25,0.175,0.537,0.259,0.82,0.259c0.452,0,0.896-0.213,1.176-0.611
	C60.597,36.233,60.439,35.34,59.791,34.886z"/>
<g>
	<g>
		<path d="M92.294,63.594l1.695,0.11c0.76,0.049,1.417-0.525,1.474-1.29c0.045-0.704-0.409-1.372-1.29-1.471l-5.102-0.335
			c-0.758-0.048-1.415,0.526-1.471,1.283l-0.354,5.166c-0.048,0.76,0.523,1.423,1.283,1.472c0.759,0.049,1.423-0.523,1.472-1.29
			l0.134-1.919c4.016,4.37,4.805,10.766,1.939,15.998c-2.864,5.232-8.874,8.049-14.707,6.945c-0.861-0.165-1.519,0.304-1.683,1.05
			c-0.156,0.743,0.256,1.487,1.163,1.661c6.999,1.341,14.221-2.046,17.653-8.333C97.906,76.434,97.01,68.831,92.294,63.594
			L92.294,63.594L92.294,63.594z"/>
		<path d="M72.55,82.153c0.048-0.758-0.522-1.421-1.282-1.471c-0.76-0.049-1.424,0.524-1.473,1.29l-0.134,1.92
			c-4.016-4.37-4.804-10.766-1.939-15.999c2.865-5.231,8.874-8.048,14.708-6.944c0.861,0.165,1.519-0.305,1.683-1.049
			c0.155-0.744-0.256-1.488-1.163-1.662c-6.992-1.347-14.212,2.04-17.646,8.327c-3.407,6.222-2.509,13.823,2.207,19.062
			l-1.697-0.111c-0.759-0.049-1.416,0.524-1.472,1.291c-0.046,0.704,0.408,1.372,1.289,1.472l5.103,0.333
			c0.758,0.049,1.415-0.525,1.47-1.283L72.55,82.153L72.55,82.153z"/>
	</g>
</g>
</svg>
