<?xml version="1.0" encoding="utf-8"?>
<!-- Generator: Adobe Illustrator 15.0.0, SVG Export Plug-In . SVG Version: 6.00 Build 0)  -->
<!DOCTYPE svg PUBLIC "-//W3C//DTD SVG 1.1//EN" "http://www.w3.org/Graphics/SVG/1.1/DTD/svg11.dtd">
<svg fill="#ffffff" version="1.1" id="Layer_1" xmlns="http://www.w3.org/2000/svg" xmlns:xlink="http://www.w3.org/1999/xlink" x="0px" y="0px"
	 width="100px" height="100px" viewBox="0 0 100 100" enable-background="new 0 0 100 100" xml:space="preserve">
<g>
	<g id="_x34__19_">
		<g>
			<path d="M59.845,73.571c1.09,0,1.975-0.885,1.975-1.975V47.902c0-1.091-0.885-1.975-1.975-1.975s-1.975,0.884-1.975,1.975v23.694
				C57.87,72.687,58.755,73.571,59.845,73.571z M71.693,26.181H59.845v-3.95c0-2.182-1.768-3.949-3.948-3.949H44.048
				c-2.182,0-3.949,1.768-3.949,3.949v3.95H28.251c-2.183,0-3.949,1.767-3.949,3.948v3.949c0,2.181,1.767,3.949,3.949,3.949v35.544
				c0,4.362,3.536,7.898,7.898,7.898h27.645c4.363,0,7.899-3.536,7.899-7.898V38.027c2.182,0,3.948-1.769,3.948-3.949v-3.949
				C75.642,27.947,73.875,26.181,71.693,26.181z M44.048,24.206c0-1.09,0.884-1.976,1.974-1.976h7.9c1.09,0,1.975,0.886,1.975,1.976
				v1.975c-1.914,0-11.849,0-11.849,0V24.206z M67.743,73.571c0,2.181-1.767,3.949-3.949,3.949H36.149
				c-2.183,0-3.949-1.769-3.949-3.949V38.027h35.543V73.571z M69.718,34.078H30.227c-1.092,0-1.976-0.885-1.976-1.975
				s0.884-1.975,1.976-1.975h39.491c1.09,0,1.976,0.885,1.976,1.975S70.808,34.078,69.718,34.078z M40.099,73.571
				c1.091,0,1.975-0.885,1.975-1.975V47.902c0-1.091-0.884-1.975-1.975-1.975c-1.09,0-1.975,0.884-1.975,1.975v23.694
				C38.124,72.687,39.009,73.571,40.099,73.571z M49.973,73.571c1.09,0,1.975-0.885,1.975-1.975V47.902
				c0-1.091-0.885-1.975-1.975-1.975c-1.091,0-1.977,0.884-1.977,1.975v23.694C47.996,72.687,48.882,73.571,49.973,73.571z"/>
		</g>
	</g>
</g>
</svg>
