<?xml version="1.0" encoding="utf-8"?>
<!-- Generator: Adobe Illustrator 15.0.0, SVG Export Plug-In . SVG Version: 6.00 Build 0)  -->
<!DOCTYPE svg PUBLIC "-//W3C//DTD SVG 1.1//EN" "http://www.w3.org/Graphics/SVG/1.1/DTD/svg11.dtd">
<svg fill="#BDD84D" version="1.1" id="Layer_1" xmlns="http://www.w3.org/2000/svg" xmlns:xlink="http://www.w3.org/1999/xlink" x="0px" y="0px"
	 width="100px" height="100px" viewBox="0 0 100 100" enable-background="new 0 0 100 100" xml:space="preserve">
<g>
	<path d="M69.639,86.332h-38.57c-3.631,0-6.584-2.953-6.584-6.582l-5.463-25.648c-2.064-1.023-3.42-3.112-3.42-5.442
		c0-3.407,2.771-6.175,6.176-6.175h56.406c3.404,0,6.175,2.769,6.175,6.175c0,1.993-0.961,3.818-2.57,4.968l-5.611,26.541
		C76.222,83.379,73.27,86.332,69.639,86.332z M21.777,46.534c-1.171,0-2.125,0.954-2.125,2.125c0,0.923,0.667,1.741,1.624,1.983
		c0.746,0.189,1.318,0.791,1.476,1.546l5.738,27.146c0.045,1.814,1.181,2.947,2.578,2.947h38.57c1.397,0,2.534-1.133,2.534-2.531
		l5.835-27.816c0.127-0.611,0.53-1.128,1.086-1.403c0.749-0.363,1.216-1.086,1.216-1.872c0-1.171-0.954-2.125-2.125-2.125
		L21.777,46.534L21.777,46.534z"/>
	<path d="M36.269,74.459c0,0.783-0.642,1.424-1.425,1.424h-0.393c-0.783,0-1.425-0.641-1.425-1.424V57.78
		c0-0.784,0.642-1.425,1.425-1.425h0.393c0.783,0,1.425,0.641,1.425,1.425V74.459z"/>
	<path d="M46.7,74.459c0,0.783-0.641,1.424-1.425,1.424h-0.392c-0.784,0-1.426-0.641-1.426-1.424V57.78
		c0-0.784,0.642-1.425,1.426-1.425h0.392c0.784,0,1.425,0.641,1.425,1.425V74.459z"/>
	<path d="M57.134,74.459c0,0.783-0.642,1.424-1.425,1.424h-0.393c-0.784,0-1.425-0.641-1.425-1.424V57.78
		c0-0.784,0.641-1.425,1.425-1.425h0.393c0.783,0,1.425,0.641,1.425,1.425V74.459z"/>
	<path d="M67.566,74.459c0,0.783-0.641,1.424-1.424,1.424h-0.394c-0.784,0-1.426-0.641-1.426-1.424V57.78
		c0-0.784,0.642-1.425,1.426-1.425h0.393c0.783,0,1.425,0.641,1.425,1.425V74.459L67.566,74.459z"/>
	<path d="M30.803,35.245c1.352-9.416,9.428-16.66,19.218-16.66s17.867,7.245,19.22,16.66c0.197,3.215,4.338,2.701,4.338,0
		C72.2,23.449,62.188,14.291,50.021,14.291s-22.18,9.158-23.558,20.954C26.464,38.589,30.854,38.718,30.803,35.245z"/>
</g>
</svg>
