<?xml version="1.0" encoding="utf-8"?>
<!-- Generator: Adobe Illustrator 15.0.0, SVG Export Plug-In . SVG Version: 6.00 Build 0)  -->
<!DOCTYPE svg PUBLIC "-//W3C//DTD SVG 1.1//EN" "http://www.w3.org/Graphics/SVG/1.1/DTD/svg11.dtd">
<svg fill="#FFFFFF" version="1.1" id="Layer_1" xmlns="http://www.w3.org/2000/svg" xmlns:xlink="http://www.w3.org/1999/xlink" x="0px" y="0px"
	 width="100px" height="100px" viewBox="0 0 100 100" enable-background="new 0 0 100 100" xml:space="preserve">
<g>
	<g id="_x32__26_">
		<g>
			<path d="M61.115,52.031H38.537c-1.246,0-2.258,1.012-2.258,2.257c0,1.247,1.012,2.259,2.258,2.259h22.579
				c1.246,0,2.258-1.012,2.258-2.259C63.373,53.043,62.361,52.031,61.115,52.031z M65.631,38.484h-31.61
				c-1.246,0-2.258,1.012-2.258,2.258S32.775,43,34.021,43h31.61c1.246,0,2.258-1.012,2.258-2.258S66.877,38.484,65.631,38.484z
				 M49.826,13.648c-19.95,0-36.125,14.152-36.125,31.609c0,9.978,5.294,18.859,13.547,24.652v15.987l15.825-9.603
				c2.19,0.361,4.443,0.571,6.753,0.571c19.952,0,36.124-14.152,36.124-31.608C85.949,27.801,69.777,13.648,49.826,13.648z
				 M49.826,72.351c-2.637,0-5.184-0.308-7.632-0.828l-10.629,6.39l0.142-10.472c-8.148-4.901-13.49-13.002-13.49-22.183
				c0-14.963,14.151-27.094,31.609-27.094s31.608,12.131,31.608,27.094C81.434,60.22,67.283,72.351,49.826,72.351z"/>
		</g>
	</g>
</g>
</svg>
