<?xml version="1.0" encoding="utf-8"?>
<!-- Generator: Adobe Illustrator 15.0.0, SVG Export Plug-In . SVG Version: 6.00 Build 0)  -->
<!DOCTYPE svg PUBLIC "-//W3C//DTD SVG 1.1//EN" "http://www.w3.org/Graphics/SVG/1.1/DTD/svg11.dtd">
<svg fill="#BDD84D" version="1.1" id="Layer_1" xmlns="http://www.w3.org/2000/svg" xmlns:xlink="http://www.w3.org/1999/xlink" x="0px" y="0px"
	 width="100px" height="100px" viewBox="0 0 100 100" enable-background="new 0 0 100 100" xml:space="preserve">
<g>
	<g>
		<path d="M80.41,36.704c-3.462-8.071-9.344-13.94-17.482-17.412c-4.067-1.735-8.33-2.621-12.781-2.621s-8.683,0.878-12.745,2.621
			c-8.071,3.462-13.98,9.328-17.448,17.412c-1.738,4.051-2.585,8.294-2.585,12.745c0,4.452,0.847,8.731,2.585,12.782
			c3.468,8.084,9.378,13.985,17.448,17.447c4.063,1.744,8.294,2.621,12.745,2.621s8.714-0.887,12.78-2.621
			c8.139-3.471,14.021-9.377,17.483-17.447c1.744-4.064,2.621-8.33,2.621-12.782C83.031,44.998,82.154,40.768,80.41,36.704z
			 M75.169,63.953c-2.577,4.42-6.107,7.927-10.554,10.52c-4.42,2.576-9.264,3.877-14.469,3.877c-3.913,0-7.646-0.754-11.201-2.298
			s-6.623-3.571-9.191-6.139c-2.567-2.567-4.61-5.666-6.139-9.228c-1.523-3.547-2.262-7.323-2.262-11.237
			c0-5.207,1.279-10.024,3.842-14.432c2.572-4.424,6.104-7.934,10.52-10.519c4.414-2.585,9.226-3.878,14.432-3.878
			c5.205,0,10.048,1.301,14.468,3.878c4.446,2.593,7.97,6.103,10.555,10.519c2.585,4.416,3.877,9.226,3.877,14.432
			S77.762,59.506,75.169,63.953z"/>
		<path d="M52.229,49.162V30.564c0-1.113-0.97-2.011-2.083-2.011c-1.04,0-1.974,0.898-1.974,2.011v18.884
			c0,0.036,0.071,0.18,0.071,0.288c-0.071,0.646,0.107,1.185,0.538,1.616l10.735,10.734c0.719,0.719,2.046,0.719,2.765,0
			c0.825-0.825,0.771-2.023,0-2.801L52.229,49.162z"/>
	</g>
</g>
</svg>
