<?xml version="1.0" encoding="utf-8"?>
<!-- Generator: Adobe Illustrator 15.0.0, SVG Export Plug-In . SVG Version: 6.00 Build 0)  -->
<!DOCTYPE svg PUBLIC "-//W3C//DTD SVG 1.1//EN" "http://www.w3.org/Graphics/SVG/1.1/DTD/svg11.dtd">
<svg version="1.1" id="Layer_1" xmlns="http://www.w3.org/2000/svg" xmlns:xlink="http://www.w3.org/1999/xlink" x="0px" y="0px"
	 width="100px" height="100px" viewBox="0 0 100 100" enable-background="new 0 0 100 100" xml:space="preserve">
<g>
	<g>
		<path d="M75.422,21.771H60.57v-7.859H16.179c-2.555,0-4.602,2.047-4.602,4.617V68.03c0,2.555,2.047,4.602,4.602,4.602h5.338
			c-0.147,0.721-0.213,1.457-0.213,2.227c0,6.141,4.945,11.103,11.103,11.103c6.14,0,11.266-5.125,11.102-11.103
			c0-0.704-0.065-1.392-0.196-2.047h20.354c-0.131,0.672-0.196,1.343-0.196,2.047c0,6.141,4.945,11.103,11.102,11.103
			c6.157,0,11.103-5.125,11.103-11.103c0-0.704-0.065-1.392-0.196-2.047h1.719c2.555,0,4.602-2.227,4.602-4.781V45.499
			L75.422,21.771z M73.719,25.014l13.313,19.29H60.75v-19.29H73.719z M32.406,82.538c-4.274,0-7.86-3.586-7.86-7.859
			s3.586-7.86,7.86-7.86c4.438,0,7.859,3.587,7.859,7.86C40.249,78.952,36.68,82.538,32.406,82.538z M42.066,69.406
			c-1.899-3.373-5.502-5.633-9.66-5.633c-4.094,0-7.647,2.194-9.563,5.469h-6.664c-0.688,0-1.195-0.508-1.195-1.195V18.529
			c0-0.688,0.507-1.195,1.195-1.195h41.149v52.072H42.066z M74.57,82.538c-4.273,0-7.859-3.586-7.859-7.859s3.586-7.86,7.859-7.86
			c4.274,0,7.86,3.587,7.86,7.86S78.845,82.538,74.57,82.538z M87.212,69.406h-2.964c-1.899-3.373-5.502-5.633-9.661-5.633
			s-7.762,2.26-9.661,5.633h-4.159V47.71h27.821v20.32C88.571,68.719,87.883,69.406,87.212,69.406z"/>
		<path d="M20.288,41.062h31.571V27.568H20.288V41.062z M23.694,30.991h24.923v6.828H23.694V30.991z"/>
	</g>
</g>
</svg>
