<?xml version="1.0" encoding="utf-8"?>
<!-- Generator: Adobe Illustrator 15.0.0, SVG Export Plug-In . SVG Version: 6.00 Build 0)  -->
<!DOCTYPE svg PUBLIC "-//W3C//DTD SVG 1.1//EN" "http://www.w3.org/Graphics/SVG/1.1/DTD/svg11.dtd">
<svg fill="#FFFFFF" version="1.1" id="Layer_1" xmlns="http://www.w3.org/2000/svg" xmlns:xlink="http://www.w3.org/1999/xlink" x="0px" y="0px"
	 width="100px" height="100px" viewBox="0 0 100 100" enable-background="new 0 0 100 100" xml:space="preserve">
<g>
	<path id="WhatsApp" d="M80.006,48.822c0,16.554-13.521,29.972-30.204,29.972c-5.297,0-10.272-1.353-14.601-3.729l-16.722,5.314
		l5.452-16.081c-2.75-4.516-4.334-9.813-4.334-15.476c0-16.553,13.523-29.971,30.206-29.971
		C66.486,18.852,80.006,32.27,80.006,48.822z M49.802,23.625c-14.004,0-25.395,11.304-25.395,25.197
		c0,5.515,1.797,10.62,4.837,14.773l-3.172,9.359l9.758-3.102c4.01,2.633,8.813,4.168,13.971,4.168
		c14.002,0,25.395-11.303,25.395-25.197C75.197,34.931,63.805,23.625,49.802,23.625z M65.055,55.726
		c-0.188-0.306-0.68-0.491-1.42-0.857c-0.74-0.367-4.382-2.146-5.059-2.389c-0.679-0.245-1.174-0.368-1.666,0.366
		c-0.493,0.736-1.912,2.389-2.346,2.88c-0.432,0.491-0.863,0.554-1.604,0.185c-0.739-0.366-3.125-1.144-5.953-3.646
		c-2.2-1.946-3.687-4.351-4.119-5.087c-0.431-0.734-0.045-1.132,0.325-1.497c0.333-0.331,0.741-0.859,1.111-1.287
		c0.371-0.429,0.494-0.735,0.74-1.227c0.248-0.489,0.124-0.918-0.062-1.287c-0.184-0.367-1.667-3.981-2.283-5.452
		s-1.232-1.226-1.665-1.226c-0.431,0-0.926-0.062-1.419-0.062c-0.494,0-1.296,0.184-1.975,0.918c-0.678,0.736-2.59,2.515-2.59,6.128
		c0,3.614,2.651,7.107,3.023,7.598c0.37,0.489,5.121,8.149,12.647,11.091c7.528,2.939,7.528,1.959,8.884,1.836
		c1.356-0.122,4.38-1.776,4.999-3.492C65.238,57.503,65.238,56.032,65.055,55.726z"/>
</g>
</svg>
