<?xml version="1.0" encoding="utf-8"?>
<!-- Generator: Adobe Illustrator 15.0.0, SVG Export Plug-In . SVG Version: 6.00 Build 0)  -->
<!DOCTYPE svg PUBLIC "-//W3C//DTD SVG 1.1//EN" "http://www.w3.org/Graphics/SVG/1.1/DTD/svg11.dtd">
<svg version="1.1" id="Layer_1" xmlns="http://www.w3.org/2000/svg" xmlns:xlink="http://www.w3.org/1999/xlink" x="0px" y="0px"
	 width="100px" height="100px" viewBox="0 0 100 100" enable-background="new 0 0 100 100" xml:space="preserve">
<g>
	<g id="_x31_0_41_">
		<g>
			<path d="M60.933,38.782c-0.776-0.775-2.032-0.775-2.807,0l-8.464,8.464L41.317,38.9c-0.77-0.77-2.017-0.77-2.785,0
				c-0.77,0.771-0.77,2.018,0,2.785l8.346,8.346l-8.403,8.402c-0.776,0.775-0.776,2.032,0,2.807c0.776,0.773,2.033,0.773,2.807,0
				l8.402-8.402l8.345,8.345c0.77,0.771,2.017,0.771,2.785,0c0.77-0.77,0.77-2.017,0-2.785l-8.346-8.345l8.464-8.464
				C61.709,40.815,61.709,39.557,60.933,38.782z M49.672,18.529c-17.406,0-31.514,14.107-31.514,31.514
				c0,17.405,14.108,31.514,31.514,31.514c17.404,0,31.513-14.11,31.513-31.514S67.078,18.529,49.672,18.529z M49.672,77.617
				c-15.229,0-27.575-12.346-27.575-27.574c0-15.229,12.345-27.575,27.575-27.575c15.229,0,27.574,12.346,27.574,27.575
				C77.246,65.271,64.901,77.617,49.672,77.617z"/>
		</g>
	</g>
</g>
</svg>
