<?xml version="1.0" encoding="utf-8"?>
<!-- Generator: Adobe Illustrator 16.0.0, SVG Export Plug-In . SVG Version: 6.00 Build 0)  -->
<!DOCTYPE svg PUBLIC "-//W3C//DTD SVG 1.1//EN" "http://www.w3.org/Graphics/SVG/1.1/DTD/svg11.dtd">
<svg fill="#BDD84D" version="1.1" id="Layer_1" xmlns="http://www.w3.org/2000/svg" xmlns:xlink="http://www.w3.org/1999/xlink" x="0px" y="0px"
	 width="100px" height="100px" viewBox="0 0 100 100" enable-background="new 0 0 100 100" xml:space="preserve">
<g>
	<path d="M87.418,17.429h-15.71v-2.365c0-1.324-1.073-2.397-2.397-2.397s-2.396,1.074-2.396,2.397v2.365H34.7v-2.365
		c0-1.324-1.073-2.397-2.397-2.397s-2.398,1.074-2.398,2.397v2.365H13.6c-1.323,0-2.396,1.074-2.396,2.398V74
		c0,1.323,1.073,2.396,2.396,2.396h14.717C30.674,86.473,39.726,94,50.509,94c10.784,0,19.835-7.528,22.194-17.604h14.715
		c1.323,0,2.397-1.073,2.397-2.396V19.827C89.816,18.503,88.742,17.429,87.418,17.429L87.418,17.429z M29.904,22.224v2.167
		c0,1.324,1.074,2.397,2.398,2.397s2.397-1.074,2.397-2.397v-2.167h32.214v2.167c0,1.324,1.072,2.397,2.396,2.397
		s2.397-1.074,2.397-2.397v-2.167h13.313v9.805H15.998v-9.805H29.904z M50.509,89.205c-9.927,0-18.003-8.076-18.003-18.002
		c0-9.928,8.076-18.004,18.003-18.004s18.003,8.076,18.003,18.004C68.512,81.129,60.436,89.205,50.509,89.205L50.509,89.205z
		 M73.297,71.602c0.002-0.133,0.01-0.266,0.01-0.398c0-12.572-10.227-22.798-22.798-22.798c-12.57,0-22.798,10.226-22.798,22.798
		c0,0.133,0.009,0.266,0.01,0.398H15.998V36.824h69.022v34.777H73.297L73.297,71.602z"/>
	<path d="M52.906,71.808V60.209c0-1.324-1.073-2.397-2.397-2.397c-1.323,0-2.397,1.073-2.397,2.397v12.592
		c0,0.637,0.252,1.245,0.702,1.695l5.511,5.512c0.468,0.467,1.081,0.701,1.695,0.701c0.613,0,1.227-0.234,1.695-0.701
		c0.936-0.938,0.936-2.455,0-3.392L52.906,71.808L52.906,71.808z"/>
</g>
</svg>
