<?xml version="1.0" encoding="utf-8"?>
<!-- Generator: Adobe Illustrator 16.0.0, SVG Export Plug-In . SVG Version: 6.00 Build 0)  -->
<!DOCTYPE svg PUBLIC "-//W3C//DTD SVG 1.1//EN" "http://www.w3.org/Graphics/SVG/1.1/DTD/svg11.dtd">
<svg fill="#BDD84D" version="1.1" id="Layer_1" xmlns="http://www.w3.org/2000/svg" xmlns:xlink="http://www.w3.org/1999/xlink" x="0px" y="0px"
	 width="100px" height="100px" viewBox="0 0 100 100" enable-background="new 0 0 100 100" xml:space="preserve">
<g>
	<g id="_x34__1_">
		<g>
			<path d="M13.146,63.939l0.012,7.758l0,0c0.006,2.143,1.744,3.879,3.885,3.885l13.574-1.922c2.203-0.42,3.877-1.729,3.875-3.875
				l-0.008-4.744c4.125-0.6,8.816-1.061,13.574-1.053c5.381,0.006,10.82,0.563,15.52,1.248l0.006,4.59l0,0
				c0.002,2.146,1.682,3.457,3.885,3.885l13.58,1.959c2.199,0.406,3.877-1.73,3.873-3.873l-0.012-7.76
				c-0.006-4.281-3.48-6.389-7.77-7.768c0,0-13.375-3.773-28.039-3.793c-13.791-0.021-28.209,3.717-28.209,3.717
				C16.729,58.131,13.145,59.652,13.146,63.939z M20.9,60.068c6.654-2.063,18.459-3.68,27.15-3.842
				c10.234-0.402,29.102,3.92,29.102,3.92c1.361,0.428,3.881,2.875,3.883,4.238l0.008,4.936c-0.346,1.363-1.104,2.584-2.465,2.465
				l-8.643-1.246c-1.402-0.271-2.471-1.105-2.471-2.471l-0.012-6.084c-1.223-0.211-20.164-4.156-36.852-0.197l0.01,6.232
				c0.002,1.361-1.063,2.197-2.467,2.465l-8.635,1.221c-1.594,0.229-2.473-1.107-2.473-2.473l-0.008-4.936
				C16.969,62.416,19.367,60.576,20.9,60.068z"/>
		</g>
	</g>
</g>
<polygon points="64.313,25.185 64.313,25.186 54.109,25.185 54.109,29.936 60.217,29.936 48.725,41.427 35.727,28.428 
	32.367,31.788 48.719,48.139 48.725,48.133 48.732,48.139 64.313,32.557 64.313,40.138 69.063,40.138 69.063,29.935 69.063,25.186 
	69.063,25.185 "/>
</svg>
