<?xml version="1.0" encoding="utf-8"?>
<!-- Generator: Adobe Illustrator 16.0.0, SVG Export Plug-In . SVG Version: 6.00 Build 0)  -->
<!DOCTYPE svg PUBLIC "-//W3C//DTD SVG 1.1//EN" "http://www.w3.org/Graphics/SVG/1.1/DTD/svg11.dtd">
<svg fill="#BDD84D" version="1.1" id="Layer_1" xmlns="http://www.w3.org/2000/svg" xmlns:xlink="http://www.w3.org/1999/xlink" x="0px" y="0px"
	 width="100px" height="100px" viewBox="0 0 100 100" enable-background="new 0 0 100 100" xml:space="preserve">
<g id="_x32__18_">
	<g>
		<path d="M62.924,52.831h-25c-1.38,0-2.5,1.12-2.5,2.5s1.12,2.5,2.5,2.5h25c1.38,0,2.5-1.12,2.5-2.5S64.304,52.831,62.924,52.831z
			 M67.924,37.831h-35c-1.38,0-2.5,1.12-2.5,2.5s1.12,2.5,2.5,2.5h35c1.38,0,2.5-1.12,2.5-2.5S69.304,37.831,67.924,37.831z
			 M50.424,10.331c-22.09,0-40,15.67-40,35c0,11.047,5.862,20.883,15,27.297v17.703l17.522-10.633c2.425,0.4,4.92,0.633,7.478,0.633
			c22.092,0,40-15.67,40-35C90.424,26.001,72.516,10.331,50.424,10.331z M50.424,75.331c-2.92,0-5.74-0.341-8.45-0.917l-11.77,7.075
			l0.158-11.596c-9.022-5.428-14.938-14.396-14.938-24.563c0-16.567,15.67-30,35-30c19.33,0,35,13.433,35,30
			S69.754,75.331,50.424,75.331z"/>
	</g>
</g>
</svg>
