<?xml version="1.0" encoding="utf-8"?>
<!-- Generator: Adobe Illustrator 16.0.0, SVG Export Plug-In . SVG Version: 6.00 Build 0)  -->
<!DOCTYPE svg PUBLIC "-//W3C//DTD SVG 1.1//EN" "http://www.w3.org/Graphics/SVG/1.1/DTD/svg11.dtd">
<svg fill="#BDD84D" version="1.1" id="Layer_1" xmlns="http://www.w3.org/2000/svg" xmlns:xlink="http://www.w3.org/1999/xlink" x="0px" y="0px"
	 width="100px" height="100px" viewBox="0 0 100 100" enable-background="new 0 0 100 100" xml:space="preserve">
<g id="_x36__17_">
	<g>
		<path d="M67.146,51.109c3.098-4.18,4.959-9.536,4.959-15.373c0-13.367-9.751-24.202-21.782-24.202
			c-12.03,0-21.781,10.835-21.781,24.202c0,5.837,1.86,11.193,4.958,15.373c-5.687,1.968-9.799,7.312-9.799,13.67v9.68
			c0,8.021,6.501,14.521,14.521,14.521h24.202c8.02,0,14.521-6.501,14.521-14.521v-9.68C76.944,58.421,72.833,53.077,67.146,51.109z
			 M33.381,35.736c0-10.692,7.585-19.362,16.941-19.362c9.357,0,16.941,8.669,16.941,19.362c0,10.692-7.584,19.361-16.941,19.361
			C40.966,55.098,33.381,46.428,33.381,35.736z M72.104,73.25c0,6.014-5.319,10.891-11.881,10.891H40.421
			c-6.561,0-11.88-4.877-11.88-10.891v-7.261c0-5.146,3.904-9.433,9.138-10.571c3.567,2.836,7.925,4.521,12.644,4.521
			c4.72,0,9.076-1.685,12.644-4.521c5.234,1.139,9.139,5.426,9.139,10.571V73.25z"/>
	</g>
</g>
</svg>
