<?xml version="1.0" encoding="utf-8"?>
<!-- Generator: Adobe Illustrator 16.0.0, SVG Export Plug-In . SVG Version: 6.00 Build 0)  -->
<!DOCTYPE svg PUBLIC "-//W3C//DTD SVG 1.1//EN" "http://www.w3.org/Graphics/SVG/1.1/DTD/svg11.dtd">
<svg fill="#BDD84D" version="1.1" id="Layer_1" xmlns="http://www.w3.org/2000/svg" xmlns:xlink="http://www.w3.org/1999/xlink" x="0px" y="0px"
	 width="100px" height="100px" viewBox="0 0 100 100" enable-background="new 0 0 100 100" xml:space="preserve">
<g id="_x31__8_">
	<g>
		<path d="M83.271,25.391H65.102c0.828-1.419,1.335-3.049,1.335-4.81c0-5.312-4.307-9.619-9.619-9.619
			c-2.89,0-5.451,1.301-7.214,3.319c-1.763-2.018-4.324-3.319-7.214-3.319c-5.313,0-9.62,4.307-9.62,9.619
			c0,1.76,0.508,3.391,1.336,4.81H15.938c-2.658,0-4.811,2.155-4.811,4.81v4.809c0,2.655,2.152,4.81,4.811,4.81v38.476
			c0,5.313,4.307,9.619,9.619,9.619h48.095c5.312,0,9.619-4.307,9.619-9.619V39.819c2.654,0,4.81-2.152,4.81-4.81V30.2
			C88.08,27.545,85.928,25.391,83.271,25.391z M56.817,15.771c2.658,0,4.81,2.152,4.81,4.81c0,2.654-2.151,4.81-4.81,4.81
			c-2.657,0-4.81-2.152-4.81-4.81C52.008,17.926,54.16,15.771,56.817,15.771z M42.39,15.771c2.657,0,4.81,2.152,4.81,4.81
			c0,2.654-2.152,4.81-4.81,4.81s-4.81-2.152-4.81-4.81C37.58,17.926,39.732,15.771,42.39,15.771z M47.199,83.104H25.557
			c-2.658,0-4.811-2.155-4.811-4.81V63.867h26.453V83.104z M47.199,59.057H20.746V39.819h26.453V59.057z M78.461,78.295
			c0,2.658-2.155,4.81-4.81,4.81H52.008V63.867h26.453V78.295z M78.461,59.057H52.008V39.819h26.453V59.057z M80.865,35.009H18.342
			c-1.327,0-2.404-1.077-2.404-2.405c0-1.327,1.077-2.404,2.404-2.404h62.523c1.327,0,2.405,1.077,2.405,2.404
			C83.271,33.932,82.192,35.009,80.865,35.009z"/>
	</g>
</g>
</svg>
