<?xml version="1.0" encoding="utf-8"?>
<!-- Generator: Adobe Illustrator 16.0.0, SVG Export Plug-In . SVG Version: 6.00 Build 0)  -->
<!DOCTYPE svg PUBLIC "-//W3C//DTD SVG 1.1//EN" "http://www.w3.org/Graphics/SVG/1.1/DTD/svg11.dtd">
<svg fill="#BDD84D" version="1.1" id="Layer_1" xmlns="http://www.w3.org/2000/svg" xmlns:xlink="http://www.w3.org/1999/xlink" x="0px" y="0px"
	 width="100px" height="100px" viewBox="0 0 100 100" enable-background="new 0 0 100 100" xml:space="preserve">
<g id="_x38__20_">
	<g>
		<path d="M50.154,62.596c1.38,0,2.5-1.12,2.5-2.5v-30c0-1.38-1.12-2.5-2.5-2.5s-2.5,1.12-2.5,2.5v30
			C47.654,61.476,48.774,62.596,50.154,62.596z M65.154,62.596c1.38,0,2.5-1.12,2.5-2.5v-22.5c0-1.38-1.12-2.5-2.5-2.5
			s-2.5,1.12-2.5,2.5v22.5C62.654,61.476,63.774,62.596,65.154,62.596z M35.154,62.596c1.38,0,2.5-1.12,2.5-2.5v-10
			c0-1.38-1.12-2.5-2.5-2.5s-2.5,1.12-2.5,2.5v10C32.654,61.476,33.774,62.596,35.154,62.596z M10.154,12.596v5h5
			c0,4.058,0,47.5,0,47.5c0,5.925,4.109,10,10,10h15l-10,17.5l7.529-0.032l9.971-17.468h5l9.97,17.468l7.53,0.032l-10-17.5h15
			c5.89,0,10-4.075,10-10c0,0,0-43.167,0-47.5h5v-5H10.154z M80.154,65.096c0,3.072-1.985,5-5,5h-50c-3.016,0-5-1.928-5-5
			c0,0-0.037-44.36-0.037-47.525h60.074C80.191,22.613,80.154,65.096,80.154,65.096z"/>
	</g>
</g>
</svg>
