<?xml version="1.0" encoding="utf-8"?>
<!-- Generator: Adobe Illustrator 16.0.0, SVG Export Plug-In . SVG Version: 6.00 Build 0)  -->
<!DOCTYPE svg PUBLIC "-//W3C//DTD SVG 1.1//EN" "http://www.w3.org/Graphics/SVG/1.1/DTD/svg11.dtd">
<svg fill="#BDD84D" version="1.1" id="Layer_1" xmlns="http://www.w3.org/2000/svg" xmlns:xlink="http://www.w3.org/1999/xlink" x="0px" y="0px"
	 width="100px" height="100px" viewBox="0 0 100 100" enable-background="new 0 0 100 100" xml:space="preserve">
<g id="_x34__3_">
	<g>
		<path d="M75.127,18.166h-47.92c-4.992,0-9.041,4.048-9.041,9.04v47.921c0,4.992,4.049,9.04,9.041,9.04h47.92
			c4.992,0,9.04-4.048,9.04-9.04V27.206C84.167,22.214,80.119,18.166,75.127,18.166z M79.648,75.127
			c0,2.497-2.024,4.521-4.521,4.521h-47.92c-2.498,0-4.521-2.023-4.521-4.521V27.206c0-2.497,2.023-4.521,4.521-4.521h47.92
			c2.497,0,4.521,2.026,4.521,4.521V75.127z M64.788,35.5c-1.079-0.624-2.464-0.253-3.087,0.827L47.248,61.361l-8.086-7.458
			c-0.854-0.911-2.283-0.958-3.196-0.104c-0.911,0.855-0.958,2.283-0.104,3.194l10.333,9.53c0.854,0.911,2.282,0.957,3.194,0.104
			c0.276-0.258,16.228-28.04,16.228-28.04C66.238,37.507,65.868,36.124,64.788,35.5z"/>
	</g>
</g>
</svg>
