<?xml version="1.0" encoding="utf-8"?>
<!-- Generator: Adobe Illustrator 16.0.0, SVG Export Plug-In . SVG Version: 6.00 Build 0)  -->
<!DOCTYPE svg PUBLIC "-//W3C//DTD SVG 1.1//EN" "http://www.w3.org/Graphics/SVG/1.1/DTD/svg11.dtd">
<svg fill="#BDD84D" version="1.1" id="Layer_1" xmlns="http://www.w3.org/2000/svg" xmlns:xlink="http://www.w3.org/1999/xlink" x="0px" y="0px"
	 width="100px" height="100px" viewBox="0 0 100 100" enable-background="new 0 0 100 100" xml:space="preserve">
<g id="_x35__9_">
	<g>
		<path d="M65.378,57.395c-4.463,0-8.36,2.332-10.6,5.83L41.28,55.51c0.87-1.715,1.406-3.623,1.406-5.678
			c0-1.268-0.244-2.468-0.593-3.623l14.046-8.025c2.302,2.496,5.574,4.084,9.238,4.084c6.96,0,12.605-5.646,12.605-12.606
			s-5.646-12.605-12.605-12.605c-6.962,0-12.606,5.645-12.606,12.605c0,1.269,0.244,2.469,0.593,3.624l-14.047,8.027
			c-2.301-2.499-5.573-4.087-9.237-4.087c-6.96,0-12.605,5.643-12.605,12.606c0,6.961,5.646,12.606,12.605,12.606
			c2.874,0,5.491-0.998,7.611-2.619l-0.048,0.098l15.264,8.724c-0.048,0.454-0.136,0.896-0.136,1.362
			c0,6.961,5.645,12.605,12.606,12.605c6.96,0,12.605-5.645,12.605-12.605S72.338,57.395,65.378,57.395z M65.378,22.098
			c4.177,0,7.563,3.386,7.563,7.563c0,4.178-3.387,7.564-7.563,7.564c-4.179,0-7.563-3.386-7.563-7.564
			C57.814,25.484,61.199,22.098,65.378,22.098z M30.08,57.395c-4.177,0-7.563-3.385-7.563-7.563c0-4.178,3.387-7.563,7.563-7.563
			c4.179,0,7.563,3.386,7.563,7.563C37.644,54.01,34.259,57.395,30.08,57.395z M65.378,77.564c-4.179,0-7.563-3.386-7.563-7.563
			c0-4.178,3.385-7.564,7.563-7.564c4.177,0,7.563,3.387,7.563,7.564C72.941,74.179,69.555,77.564,65.378,77.564z"/>
	</g>
</g>
</svg>
